<svg width="46" height="45" viewBox="0 0 46 45" fill="none" xmlns="http://www.w3.org/2000/svg">
<g clip-path="url(#clip0_1_110)">
<path d="M0.280029 10.0156C0.280029 4.49278 4.75718 0.015625 10.28 0.015625H35.5496C41.0724 0.015625 45.5496 4.49277 45.5496 10.0156V33.2668C45.5496 38.7896 41.0724 43.2668 35.5496 43.2668H10.28C4.75719 43.2668 0.280029 38.7896 0.280029 33.2668V10.0156Z" fill="#88A2FF"/>
<path d="M25 14.0156H12C10.8954 14.0156 10 14.9111 10 16.0156V26.0156C10 27.1202 10.8954 28.0156 12 28.0156H25C26.1046 28.0156 27 27.1202 27 26.0156V16.0156C27 14.9111 26.1046 14.0156 25 14.0156Z" fill="#365BDD"/>
<path d="M28.998 22.3013C28.4894 21.9009 28.4894 21.1303 28.998 20.7299L34.6314 16.2947C35.2874 15.7783 36.25 16.2455 36.25 17.0804V25.9508C36.25 26.7857 35.2874 27.2529 34.6314 26.7365L28.998 22.3013Z" fill="#365BDD"/>
</g>
<defs>
<clipPath id="clip0_1_110">
<rect width="46" height="44" fill="white" transform="translate(0 0.015625)"/>
</clipPath>
</defs>
</svg>
