<svg width="184" height="61" viewBox="0 0 184 61" fill="none" xmlns="http://www.w3.org/2000/svg">
<g clip-path="url(#clip0_1_342)">
<path d="M45 0.53125H14C6.26801 0.53125 0 6.79926 0 14.5312V46.5312C0 54.2632 6.26801 60.5312 14 60.5312H45C52.732 60.5312 59 54.2632 59 46.5312V14.5312C59 6.79926 52.732 0.53125 45 0.53125Z" fill="white"/>
<path d="M45 0.53125H14C6.26801 0.53125 0 6.79926 0 14.5312V46.5312C0 54.2632 6.26801 60.5312 14 60.5312H45C52.732 60.5312 59 54.2632 59 46.5312V14.5312C59 6.79926 52.732 0.53125 45 0.53125Z" stroke="#29A0F5"/>
<path d="M47.2452 34.9574L21.4506 15.1331C18.3826 12.7752 13.9841 13.3508 11.6262 16.4188C9.26833 19.4868 9.84398 23.8853 12.912 26.2432L38.7066 46.0675C41.7746 48.4254 46.1731 47.8497 48.531 44.7818C50.8888 41.7138 50.3132 37.3153 47.2452 34.9574Z" fill="#0083E1"/>
<path d="M43 13.5312H17C13.134 13.5312 10 16.6653 10 20.5312C10 24.3972 13.134 27.5312 17 27.5312H43C46.866 27.5312 50 24.3972 50 20.5312C50 16.6653 46.866 13.5312 43 13.5312Z" fill="#29A0F5"/>
<path d="M43 33.5312H17C13.134 33.5312 10 36.6653 10 40.5312C10 44.3972 13.134 47.5312 17 47.5312H43C46.866 47.5312 50 44.3972 50 40.5312C50 36.6653 46.866 33.5312 43 33.5312Z" fill="#29A0F5"/>
<path d="M84.8931 35.5927C84.8931 37.8486 84.0785 39.6259 82.4492 40.9248C80.8314 42.2236 78.5755 42.873 75.6816 42.873C73.0156 42.873 70.6572 42.3717 68.6064 41.3691V36.4472C70.2926 37.1992 71.7168 37.729 72.8789 38.0366C74.0524 38.3442 75.1234 38.498 76.0918 38.498C77.2539 38.498 78.1426 38.2758 78.7578 37.8315C79.3844 37.3872 79.6978 36.7263 79.6978 35.8491C79.6978 35.3592 79.561 34.9262 79.2876 34.5502C79.0142 34.1629 78.6097 33.7926 78.0742 33.4394C77.5501 33.0862 76.4735 32.5222 74.8442 31.7475C73.3175 31.0297 72.1725 30.3404 71.4092 29.6796C70.6458 29.0188 70.0363 28.2498 69.5806 27.3725C69.1248 26.4952 68.897 25.4698 68.897 24.2963C68.897 22.0861 69.6432 20.3486 71.1357 19.0839C72.6396 17.8193 74.7132 17.187 77.3564 17.187C78.6553 17.187 79.8914 17.3408 81.0649 17.6484C82.2498 17.956 83.486 18.3889 84.7734 18.9472L83.0645 23.0659C81.7314 22.519 80.6263 22.1373 79.749 21.9208C78.8831 21.7044 78.0286 21.5961 77.1855 21.5961C76.1829 21.5961 75.4139 21.8297 74.8784 22.2968C74.3429 22.7639 74.0752 23.3735 74.0752 24.1254C74.0752 24.5926 74.1834 25.0027 74.3999 25.3559C74.6164 25.6977 74.9582 26.0338 75.4253 26.3642C75.9038 26.6832 77.026 27.2643 78.792 28.1074C81.1276 29.2239 82.7284 30.3461 83.5942 31.4741C84.4601 32.5906 84.8931 33.9635 84.8931 35.5927ZM99.5049 42.873C97.2604 42.873 95.5002 42.0584 94.2241 40.4291H93.9507C94.133 42.0242 94.2241 42.9471 94.2241 43.1977V50.9394H89.0117V23.4248H93.25L93.9849 25.9028H94.2241C95.4432 24.0115 97.249 23.0659 99.6416 23.0659C101.897 23.0659 103.663 23.9374 104.939 25.6806C106.215 27.4238 106.854 29.8448 106.854 32.9438C106.854 34.9832 106.552 36.7548 105.948 38.2587C105.355 39.7626 104.507 40.9077 103.401 41.6938C102.296 42.4799 100.997 42.873 99.5049 42.873ZM97.9668 27.2358C96.6794 27.2358 95.7394 27.6346 95.147 28.4321C94.5545 29.2182 94.2469 30.5227 94.2241 32.3457V32.9096C94.2241 34.9604 94.526 36.4301 95.1299 37.3188C95.7451 38.2075 96.7135 38.6518 98.0352 38.6518C100.371 38.6518 101.539 36.7263 101.539 32.8754C101.539 30.9956 101.248 29.5885 100.667 28.6542C100.097 27.7086 99.1973 27.2358 97.9668 27.2358ZM123.294 42.5312L122.286 39.9335H122.149C121.272 41.0387 120.366 41.8077 119.432 42.2407C118.509 42.6622 117.301 42.873 115.809 42.873C113.974 42.873 112.527 42.3489 111.468 41.3007C110.42 40.2526 109.896 38.76 109.896 36.8232C109.896 34.7952 110.602 33.3027 112.015 32.3457C113.439 31.3772 115.581 30.8417 118.44 30.7392L121.756 30.6367V29.7993C121.756 27.8624 120.765 26.894 118.782 26.894C117.256 26.894 115.461 27.3554 113.399 28.2783L111.673 24.7578C113.872 23.607 116.31 23.0317 118.987 23.0317C121.551 23.0317 123.516 23.59 124.883 24.7065C126.25 25.823 126.934 27.5206 126.934 29.7993V42.5312H123.294ZM121.756 33.6787L119.739 33.747C118.224 33.7926 117.096 34.066 116.355 34.5673C115.615 35.0686 115.245 35.832 115.245 36.8574C115.245 38.3271 116.088 39.062 117.774 39.062C118.982 39.062 119.944 38.7145 120.662 38.0195C121.391 37.3245 121.756 36.4016 121.756 35.2509V33.6787ZM144.451 42.5312L143.443 39.9335H143.306C142.429 41.0387 141.523 41.8077 140.589 42.2407C139.666 42.6622 138.458 42.873 136.966 42.873C135.132 42.873 133.685 42.3489 132.625 41.3007C131.577 40.2526 131.053 38.76 131.053 36.8232C131.053 34.7952 131.759 33.3027 133.172 32.3457C134.596 31.3772 136.738 30.8417 139.598 30.7392L142.913 30.6367V29.7993C142.913 27.8624 141.922 26.894 139.939 26.894C138.413 26.894 136.618 27.3554 134.556 28.2783L132.83 24.7578C135.029 23.607 137.467 23.0317 140.145 23.0317C142.708 23.0317 144.673 23.59 146.041 24.7065C147.408 25.823 148.091 27.5206 148.091 29.7993V42.5312H144.451ZM142.913 33.6787L140.896 33.747C139.381 33.7926 138.253 34.066 137.513 34.5673C136.772 35.0686 136.402 35.832 136.402 36.8574C136.402 38.3271 137.245 39.062 138.931 39.062C140.139 39.062 141.102 38.7145 141.819 38.0195C142.549 37.3245 142.913 36.4016 142.913 35.2509V33.6787ZM161.524 38.7202C162.435 38.7202 163.529 38.5208 164.805 38.122V42.0014C163.506 42.5825 161.911 42.873 160.02 42.873C157.935 42.873 156.414 42.3489 155.457 41.3007C154.511 40.2412 154.039 38.6575 154.039 36.5498V27.3383H151.543V25.1337L154.415 23.3906L155.918 19.3574H159.251V23.4248H164.6V27.3383H159.251V36.5498C159.251 37.2903 159.456 37.8372 159.866 38.1904C160.288 38.5436 160.84 38.7202 161.524 38.7202ZM181.98 42.5312H166.89V39.455L175.743 27.4067H167.42V23.4248H181.673V26.8085L173.06 38.5493H181.98V42.5312Z" fill="white"/>
</g>
<defs>
<clipPath id="clip0_1_342">
<rect width="184" height="60" fill="white" transform="translate(0 0.53125)"/>
</clipPath>
</defs>
</svg>
