<svg width="46" height="45" viewBox="0 0 46 45" fill="none" xmlns="http://www.w3.org/2000/svg">
<g clip-path="url(#clip0_1_114)">
<path d="M0.333252 10.0156C0.333252 4.49278 4.81041 0.015625 10.3333 0.015625H35.6028C41.1257 0.015625 45.6028 4.49277 45.6028 10.0156V33.2668C45.6028 38.7896 41.1257 43.2668 35.6028 43.2668H10.3333C4.81041 43.2668 0.333252 38.7896 0.333252 33.2668V10.0156Z" fill="#AEEA7F"/>
<path d="M15.8518 21.4033H19.8167V26.5849C19.1741 26.7946 18.568 26.9404 17.9983 27.0224C17.4332 27.109 16.8544 27.1523 16.262 27.1523C14.7535 27.1523 13.6005 26.7103 12.803 25.8261C12.01 24.9375 11.6135 23.6637 11.6135 22.0049C11.6135 20.3916 12.0738 19.1338 12.9944 18.2314C13.9195 17.3291 15.2001 16.8779 16.8362 16.8779C17.8616 16.8779 18.8505 17.083 19.803 17.4931L19.0989 19.1885C18.3697 18.8239 17.6109 18.6416 16.8225 18.6416C15.9065 18.6416 15.1728 18.9492 14.6213 19.5644C14.0699 20.1797 13.7942 21.0068 13.7942 22.0459C13.7942 23.1305 14.0152 23.9599 14.4573 24.5342C14.9039 25.1038 15.551 25.3886 16.3987 25.3886C16.8407 25.3886 17.2896 25.3431 17.7454 25.2519V23.167H15.8518V21.4033ZM22.2024 27.0156V17.0215H24.3215V27.0156H22.2024ZM28.9221 27.0156H26.8372V17.0215H32.5657V18.7578H28.9221V21.3349H32.3127V23.0644H28.9221V27.0156Z" fill="#577E39"/>
</g>
<defs>
<clipPath id="clip0_1_114">
<rect width="46" height="44" fill="white" transform="translate(0 0.015625)"/>
</clipPath>
</defs>
</svg>
