<svg width="17" height="17" viewBox="0 0 17 17" fill="none" xmlns="http://www.w3.org/2000/svg">
<path d="M8.5 4.13867C6.125 4.13867 4.23242 6.06836 4.23242 8.40625C4.23242 10.7812 6.125 12.6739 8.5 12.6739C10.8379 12.6739 12.7676 10.7812 12.7676 8.40625C12.7676 6.06836 10.8379 4.13867 8.5 4.13867ZM8.5 11.1895C6.97852 11.1895 5.7168 9.96485 5.7168 8.40625C5.7168 6.88477 6.94141 5.66016 8.5 5.66016C10.0215 5.66016 11.2461 6.88477 11.2461 8.40625C11.2461 9.96485 10.0215 11.1895 8.5 11.1895ZM13.918 3.99023C13.918 3.43359 13.4727 2.98828 12.916 2.98828C12.3594 2.98828 11.9141 3.43359 11.9141 3.99023C11.9141 4.54687 12.3594 4.99219 12.916 4.99219C13.4727 4.99219 13.918 4.54687 13.918 3.99023ZM16.7383 4.99219C16.6641 3.65625 16.3672 2.46875 15.4023 1.50391C14.4375 0.53906 13.25 0.242188 11.9141 0.167969C10.541 0.0937499 6.42188 0.0937499 5.04883 0.167969C3.71289 0.242188 2.5625 0.53906 1.56055 1.50391C0.595703 2.46875 0.298828 3.65625 0.224609 4.99219C0.150391 6.36523 0.150391 10.4843 0.224609 11.8574C0.298828 13.1933 0.595703 14.3437 1.56055 15.3457C2.5625 16.3105 3.71289 16.6075 5.04883 16.6817C6.42188 16.7559 10.541 16.7559 11.9141 16.6817C13.25 16.6075 14.4375 16.3105 15.4023 15.3457C16.3672 14.3437 16.6641 13.1933 16.7383 11.8574C16.8125 10.4843 16.8125 6.36523 16.7383 4.99219ZM14.957 13.3047C14.6973 14.0469 14.1035 14.6035 13.3984 14.9003C12.2852 15.3457 9.6875 15.2344 8.5 15.2344C7.27539 15.2344 4.67773 15.3457 3.60156 14.9003C2.85938 14.6035 2.30273 14.0469 2.00586 13.3047C1.56055 12.2286 1.67188 9.63085 1.67188 8.40625C1.67188 7.21875 1.56055 4.62109 2.00586 3.50781C2.30273 2.80273 2.85938 2.24609 3.60156 1.94922C4.67773 1.50391 7.27539 1.61523 8.5 1.61523C9.6875 1.61523 12.2852 1.50391 13.3984 1.94922C14.1035 2.20898 14.6602 2.80273 14.957 3.50781C15.4023 4.62109 15.291 7.21875 15.291 8.40625C15.291 9.63085 15.4023 12.2286 14.957 13.3047Z" fill="white"/>
</svg>
