<svg width="95" height="96" viewBox="0 0 95 96" fill="none" xmlns="http://www.w3.org/2000/svg">
<path d="M0 20.0469C0 9.00118 8.95431 0.046875 20 0.046875H75C86.0457 0.046875 95 9.00118 95 20.0469V75.0469C95 86.0926 86.0457 95.0469 75 95.0469H20C8.9543 95.0469 0 86.0926 0 75.0469V20.0469Z" fill="#FED8FF"/>
<g clip-path="url(#clip0_1_36)">
<path d="M58.9032 27.0469H35.1554C33.6497 27.0469 32.2716 27.8924 31.5895 29.2347L27.0971 38.0747C26.4227 39.4018 26.541 40.9937 27.4043 42.2065L44.0041 65.5278C45.5869 67.7515 48.8828 67.7718 50.4929 65.5678L67.4438 42.3638C68.3879 41.0715 68.4708 39.3409 67.6546 37.9643L62.3439 29.0069C61.6235 27.7919 60.3157 27.0469 58.9032 27.0469Z" stroke="#E074E3" stroke-width="2"/>
<path d="M27 40.0469H68" stroke="#E074E3" stroke-width="2"/>
<path d="M37.085 40.5948L45.3346 64.3864C45.964 66.2015 48.5414 66.1717 49.1285 64.3425L56.7516 40.5948M47.2974 27.0469L58.5293 28.4954C59.7976 28.6589 60.5887 29.9544 60.1549 31.1574L56.7516 40.5948L47.2974 27.0469ZM47.2974 27.0469L35.4546 28.5106C34.1911 28.6668 33.3932 29.9479 33.8103 31.1507L37.085 40.5948L47.2974 27.0469ZM47.2974 27.0469L37.085 40.5948L47.2974 27.0469ZM47.2974 27.0469L56.7516 40.5948L47.2974 27.0469Z" stroke="#E074E3" stroke-width="2"/>
</g>
<defs>
<clipPath id="clip0_1_36">
<rect width="45" height="45" fill="white" transform="translate(25 25.0469)"/>
</clipPath>
</defs>
</svg>
