<svg width="16" height="17" viewBox="0 0 16 17" fill="none" xmlns="http://www.w3.org/2000/svg">
<path d="M3.64062 16.5312V6.01953H0.371094V16.5312H3.64062ZM1.98828 4.61328C3.04297 4.61328 3.88672 3.73437 3.88672 2.67969C3.88672 1.66016 3.04297 0.816406 1.98828 0.816406C0.96875 0.816406 0.125 1.66016 0.125 2.67969C0.125 3.73437 0.96875 4.61328 1.98828 4.61328ZM15.8398 16.5312H15.875V10.7656C15.875 7.95313 15.2422 5.77344 11.9375 5.77344C10.3555 5.77344 9.30078 6.65234 8.84375 7.46094H8.80859V6.01953H5.67969V16.5312H8.94922V11.3281C8.94922 9.95703 9.19531 8.65625 10.8828 8.65625C12.5703 8.65625 12.6055 10.2031 12.6055 11.4335V16.5312H15.8398Z" fill="white"/>
</svg>
