<svg width="47" height="45" viewBox="0 0 47 45" fill="none" xmlns="http://www.w3.org/2000/svg">
<g clip-path="url(#clip0_1_117)">
<path d="M0.806641 10.0156C0.806641 4.49278 5.28379 0.015625 10.8066 0.015625H36.0762C41.5991 0.015625 46.0762 4.49277 46.0762 10.0156V33.2668C46.0762 38.7896 41.5991 43.2668 36.0762 43.2668H10.8066C5.2838 43.2668 0.806641 38.7896 0.806641 33.2668V10.0156Z" fill="#F68DFF"/>
<path d="M26.7974 10.0342C26.9489 10.0635 27.0915 10.127 27.2139 10.2196C27.3367 10.3112 27.4361 10.4297 27.5043 10.5655C27.5725 10.7014 27.6075 10.8509 27.6067 11.0024V14.2993L19.4261 16.2685L19.418 16.2708C19.1323 16.3414 18.9479 16.566 18.9479 16.8427V24.8872C18.9456 25.2662 18.8225 25.635 18.5959 25.9418C18.3693 26.2487 18.0505 26.4782 17.6843 26.5982L16.8401 26.8995L16.8254 26.9044C16.6043 26.9777 16.3726 27.0152 16.1392 27.0156C15.6932 27.0149 15.2589 26.876 14.898 26.6187C14.6178 26.422 14.39 26.162 14.2337 25.8606C14.0774 25.5592 13.9973 25.2254 14.0001 24.8872C14.0001 24.0558 14.4979 23.3549 15.2668 23.1026L17.2769 22.4196L17.2815 22.4177C17.5424 22.3315 17.711 22.1107 17.711 21.8549V13.2791C17.7083 13.0074 17.7976 12.7425 17.965 12.5261C18.1324 12.3096 18.3682 12.1539 18.6356 12.0835L26.3403 10.0503C26.4893 10.0104 26.6458 10.0048 26.7974 10.0342Z" fill="#C038CC"/>
<path d="M32.2505 16.0342C32.4021 16.0635 32.5447 16.127 32.667 16.2196C32.7898 16.3112 32.8893 16.4297 32.9574 16.5655C33.0256 16.7014 33.0606 16.8509 33.0598 17.0024V20.2993L24.8792 22.2685L24.8711 22.2708C24.5854 22.3414 24.401 22.566 24.401 22.8427V30.8872C24.3987 31.2662 24.2756 31.635 24.049 31.9418C23.8224 32.2487 23.5036 32.4782 23.1374 32.5982L22.2932 32.8995L22.2785 32.9044C22.0574 32.9777 21.8257 33.0152 21.5924 33.0156C21.1464 33.0149 20.712 32.876 20.3512 32.6187C20.0709 32.422 19.8431 32.162 19.6868 31.8606C19.5305 31.5592 19.4504 31.2254 19.4532 30.8872C19.4532 30.0558 19.9511 29.3549 20.7199 29.1026L22.73 28.4196L22.7346 28.4177C22.9955 28.3315 23.1641 28.1107 23.1641 27.8549V19.2791C23.1614 19.0074 23.2507 18.7425 23.4181 18.5261C23.5855 18.3096 23.8214 18.1539 24.0887 18.0835L31.7934 16.0503C31.9425 16.0103 32.0989 16.0048 32.2505 16.0342Z" fill="#C038CC"/>
</g>
<defs>
<clipPath id="clip0_1_117">
<rect width="47" height="44" fill="white" transform="translate(0 0.015625)"/>
</clipPath>
</defs>
</svg>
