<svg width="87" height="88" viewBox="0 0 87 88" fill="none" xmlns="http://www.w3.org/2000/svg">
<path d="M0 44.0312C0 20.0069 19.4756 0.53125 43.5 0.53125C67.5244 0.53125 87 20.0069 87 44.0312C87 68.0556 67.5244 87.5312 43.5 87.5312C19.4756 87.5312 0 68.0556 0 44.0312Z" fill="#1B2534"/>
<g clip-path="url(#clip0_1_374)">
<path d="M38.2501 56.9307L51.631 45.4643C51.8466 45.2795 52.0196 45.0503 52.1383 44.7923C52.2569 44.5343 52.3183 44.2538 52.3183 43.9698C52.3183 43.6859 52.2569 43.4053 52.1383 43.1473C52.0196 42.8892 51.8466 42.66 51.631 42.4752L38.2501 31.0088C36.9729 29.9145 35 30.8218 35 32.5034V55.4394C35 57.121 36.9729 58.0282 38.2501 56.9307Z" fill="white"/>
</g>
<defs>
<clipPath id="clip0_1_374">
<rect width="18" height="27" fill="white" transform="translate(35 30.5312)"/>
</clipPath>
</defs>
</svg>
