<svg width="46" height="45" viewBox="0 0 46 45" fill="none" xmlns="http://www.w3.org/2000/svg">
<g clip-path="url(#clip0_1_105)">
<path d="M0 10.0156C0 4.49278 4.47715 0.015625 10 0.015625H35.2696C40.7924 0.015625 45.2696 4.49277 45.2696 10.0156V33.2668C45.2696 38.7896 40.7924 43.2668 35.2696 43.2668H10C4.47716 43.2668 0 38.7896 0 33.2668V10.0156Z" fill="#FFD772"/>
<path d="M30 14.0156H15C13.3431 14.0156 12 15.3588 12 17.0156V26.0156C12 27.6725 13.3431 29.0156 15 29.0156H30C31.6569 29.0156 33 27.6725 33 26.0156V17.0156C33 15.3588 31.6569 14.0156 30 14.0156Z" fill="#C59419"/>
<path d="M19.9198 22.204L17.3292 25.384C16.797 26.0373 17.2618 27.0156 18.1045 27.0156H30C30.5523 27.0156 31 26.5679 31 26.0156V25.3013V23.401C31 23.1529 30.9078 22.9138 30.7414 22.7299L28.1655 19.8841C27.7528 19.4282 27.0304 19.4492 26.6449 19.9283L23.9757 23.2458C23.5903 23.7248 22.8679 23.7458 22.4552 23.29L21.4365 22.1645C21.0255 21.7104 20.3066 21.7292 19.9198 22.204Z" fill="#FFD772"/>
<path d="M18 20.0156C19.1046 20.0156 20 19.1202 20 18.0156C20 16.9111 19.1046 16.0156 18 16.0156C16.8954 16.0156 16 16.9111 16 18.0156C16 19.1202 16.8954 20.0156 18 20.0156Z" fill="#FFD772"/>
</g>
<defs>
<clipPath id="clip0_1_105">
<rect width="46" height="44" fill="white" transform="translate(0 0.015625)"/>
</clipPath>
</defs>
</svg>
