<svg width="44" height="45" viewBox="0 0 44 45" fill="none" xmlns="http://www.w3.org/2000/svg">
<g clip-path="url(#clip0_1_83)">
<path d="M0.62085 10.6364C0.62085 5.11363 5.098 0.636475 10.6209 0.636475H33.872C39.3949 0.636475 43.872 5.11363 43.872 10.6365V33.8876C43.872 39.4105 39.3949 43.8876 33.872 43.8876H10.6208C5.098 43.8876 0.62085 39.4105 0.62085 33.8876V10.6364Z" fill="#001E36"/>
<path d="M14.1782 21.3515H15.3237C16.3944 21.3515 17.1955 21.1419 17.7271 20.7226C18.2586 20.2959 18.5244 19.6782 18.5244 18.8696C18.5244 18.0535 18.2998 17.4508 17.8506 17.0615C17.4089 16.6722 16.7126 16.4775 15.7617 16.4775H14.1782V21.3515ZM22.0396 18.7461C22.0396 20.513 21.4855 21.8644 20.3774 22.8003C19.2769 23.7361 17.7083 24.2041 15.6719 24.2041H14.1782V30.0439H10.6968V13.625H15.9414C17.9329 13.625 19.4453 14.0555 20.4785 14.9165C21.5192 15.77 22.0396 17.0465 22.0396 18.7461ZM33.6294 26.3154C33.6294 27.6032 33.1802 28.584 32.2817 29.2578C31.3908 29.9316 30.0544 30.2685 28.2725 30.2685C27.359 30.2685 26.5804 30.2049 25.9365 30.0776C25.2926 29.9578 24.6899 29.7781 24.1284 29.5385V26.7085C24.7648 27.008 25.4798 27.2588 26.2734 27.4609C27.0745 27.6631 27.7783 27.7641 28.3848 27.7641C29.6276 27.7641 30.249 27.4048 30.249 26.686C30.249 26.4165 30.1667 26.1994 30.002 26.0346C29.8372 25.8624 29.5527 25.6715 29.1484 25.4619C28.7441 25.2448 28.2051 24.994 27.5312 24.7094C26.5654 24.3052 25.8542 23.9308 25.3975 23.5864C24.9482 23.242 24.6188 22.8489 24.4092 22.4072C24.207 21.958 24.106 21.4077 24.106 20.7563C24.106 19.6408 24.5365 18.7798 25.3975 18.1733C26.266 17.5594 27.4938 17.2524 29.0811 17.2524C30.5934 17.2524 32.0646 17.5818 33.4946 18.2407L32.4614 20.7114C31.8325 20.4419 31.2448 20.221 30.6982 20.0488C30.1517 19.8766 29.5939 19.7905 29.0249 19.7905C28.0142 19.7905 27.5088 20.0638 27.5088 20.6103C27.5088 20.9173 27.6698 21.1831 27.9917 21.4077C28.3211 21.6323 29.0361 21.9655 30.1367 22.4072C31.1175 22.804 31.8363 23.1746 32.293 23.519C32.7497 23.8634 33.0866 24.2602 33.3037 24.7094C33.5208 25.1587 33.6294 25.694 33.6294 26.3154Z" fill="#30A8FF"/>
</g>
<defs>
<clipPath id="clip0_1_83">
<rect width="44" height="44" fill="white" transform="translate(0 0.015625)"/>
</clipPath>
</defs>
</svg>
