<svg width="184" height="60" viewBox="0 0 184 60" fill="none" xmlns="http://www.w3.org/2000/svg">
<g clip-path="url(#clip0_1_6)">
<path d="M45 0H14C6.26801 0 0 6.26801 0 14V46C0 53.732 6.26801 60 14 60H45C52.732 60 59 53.732 59 46V14C59 6.26801 52.732 0 45 0Z" fill="white"/>
<path d="M45 0H14C6.26801 0 0 6.26801 0 14V46C0 53.732 6.26801 60 14 60H45C52.732 60 59 53.732 59 46V14C59 6.26801 52.732 0 45 0Z" stroke="#29A0F5"/>
<path d="M46.8883 34.0936L21.0937 14.2693C18.0257 11.9114 13.6272 12.4871 11.2693 15.555C8.91143 18.623 9.48708 23.0215 12.5551 25.3794L38.3497 45.2037C41.4177 47.5616 45.8162 46.986 48.174 43.918C50.5319 40.85 49.9563 36.4515 46.8883 34.0936Z" fill="#0083E1"/>
<path d="M42.6431 12.6673H16.6431C12.7771 12.6673 9.64307 15.8013 9.64307 19.6673C9.64307 23.5333 12.7771 26.6673 16.6431 26.6673H42.6431C46.5091 26.6673 49.6431 23.5333 49.6431 19.6673C49.6431 15.8013 46.5091 12.6673 42.6431 12.6673Z" fill="#29A0F5"/>
<path d="M42.6431 32.6673H16.6431C12.7771 32.6673 9.64307 35.8013 9.64307 39.6673C9.64307 43.5333 12.7771 46.6673 16.6431 46.6673H42.6431C46.5091 46.6673 49.6431 43.5333 49.6431 39.6673C49.6431 35.8013 46.5091 32.6673 42.6431 32.6673Z" fill="#29A0F5"/>
<path d="M84.8931 35.0615C84.8931 37.3174 84.0785 39.0947 82.4492 40.3936C80.8314 41.6924 78.5755 42.3418 75.6816 42.3418C73.0156 42.3418 70.6572 41.8405 68.6064 40.8379V35.916C70.2926 36.668 71.7168 37.1978 72.8789 37.5054C74.0524 37.813 75.1234 37.9668 76.0918 37.9668C77.2539 37.9668 78.1426 37.7446 78.7578 37.3003C79.3844 36.856 79.6978 36.1951 79.6978 35.3179C79.6978 34.828 79.561 34.395 79.2876 34.019C79.0142 33.6317 78.6097 33.2614 78.0742 32.9082C77.5501 32.555 76.4735 31.991 74.8442 31.2163C73.3175 30.4985 72.1725 29.8092 71.4092 29.1484C70.6458 28.4876 70.0363 27.7186 69.5806 26.8413C69.1248 25.964 68.897 24.9386 68.897 23.7651C68.897 21.5549 69.6432 19.8174 71.1357 18.5527C72.6396 17.2881 74.7132 16.6558 77.3564 16.6558C78.6553 16.6558 79.8914 16.8096 81.0649 17.1172C82.2498 17.4248 83.486 17.8577 84.7734 18.416L83.0645 22.5347C81.7314 21.9878 80.6263 21.6061 79.749 21.3896C78.8831 21.1732 78.0286 21.0649 77.1855 21.0649C76.1829 21.0649 75.4139 21.2985 74.8784 21.7656C74.3429 22.2327 74.0752 22.8423 74.0752 23.5942C74.0752 24.0614 74.1834 24.4715 74.3999 24.8247C74.6164 25.1665 74.9582 25.5026 75.4253 25.833C75.9038 26.152 77.026 26.7331 78.792 27.5762C81.1276 28.6927 82.7284 29.8149 83.5942 30.9429C84.4601 32.0594 84.8931 33.4323 84.8931 35.0615ZM99.5049 42.3418C97.2604 42.3418 95.5002 41.5272 94.2241 39.8979H93.9507C94.133 41.493 94.2241 42.4159 94.2241 42.6665V50.4082H89.0117V22.8936H93.25L93.9849 25.3716H94.2241C95.4432 23.4803 97.249 22.5347 99.6416 22.5347C101.897 22.5347 103.663 23.4062 104.939 25.1494C106.215 26.8926 106.854 29.3136 106.854 32.4126C106.854 34.452 106.552 36.2236 105.948 37.7275C105.355 39.2314 104.507 40.3765 103.401 41.1626C102.296 41.9487 100.997 42.3418 99.5049 42.3418ZM97.9668 26.7046C96.6794 26.7046 95.7394 27.1034 95.147 27.9009C94.5545 28.687 94.2469 29.9915 94.2241 31.8145V32.3784C94.2241 34.4292 94.526 35.8989 95.1299 36.7876C95.7451 37.6763 96.7135 38.1206 98.0352 38.1206C100.371 38.1206 101.539 36.1951 101.539 32.3442C101.539 30.4644 101.248 29.0573 100.667 28.123C100.097 27.1774 99.1973 26.7046 97.9668 26.7046ZM123.294 42L122.286 39.4023H122.149C121.272 40.5075 120.366 41.2765 119.432 41.7095C118.509 42.131 117.301 42.3418 115.809 42.3418C113.974 42.3418 112.527 41.8177 111.468 40.7695C110.42 39.7214 109.896 38.2288 109.896 36.292C109.896 34.264 110.602 32.7715 112.015 31.8145C113.439 30.846 115.581 30.3105 118.44 30.208L121.756 30.1055V29.2681C121.756 27.3312 120.765 26.3628 118.782 26.3628C117.256 26.3628 115.461 26.8242 113.399 27.7471L111.673 24.2266C113.872 23.0758 116.31 22.5005 118.987 22.5005C121.551 22.5005 123.516 23.0588 124.883 24.1753C126.25 25.2918 126.934 26.9894 126.934 29.2681V42H123.294ZM121.756 33.1475L119.739 33.2158C118.224 33.2614 117.096 33.5348 116.355 34.0361C115.615 34.5374 115.245 35.3008 115.245 36.3262C115.245 37.7959 116.088 38.5308 117.774 38.5308C118.982 38.5308 119.944 38.1833 120.662 37.4883C121.391 36.7933 121.756 35.8704 121.756 34.7197V33.1475ZM144.451 42L143.443 39.4023H143.306C142.429 40.5075 141.523 41.2765 140.589 41.7095C139.666 42.131 138.458 42.3418 136.966 42.3418C135.132 42.3418 133.685 41.8177 132.625 40.7695C131.577 39.7214 131.053 38.2288 131.053 36.292C131.053 34.264 131.759 32.7715 133.172 31.8145C134.596 30.846 136.738 30.3105 139.598 30.208L142.913 30.1055V29.2681C142.913 27.3312 141.922 26.3628 139.939 26.3628C138.413 26.3628 136.618 26.8242 134.556 27.7471L132.83 24.2266C135.029 23.0758 137.467 22.5005 140.145 22.5005C142.708 22.5005 144.673 23.0588 146.041 24.1753C147.408 25.2918 148.091 26.9894 148.091 29.2681V42H144.451ZM142.913 33.1475L140.896 33.2158C139.381 33.2614 138.253 33.5348 137.513 34.0361C136.772 34.5374 136.402 35.3008 136.402 36.3262C136.402 37.7959 137.245 38.5308 138.931 38.5308C140.139 38.5308 141.102 38.1833 141.819 37.4883C142.549 36.7933 142.913 35.8704 142.913 34.7197V33.1475ZM161.524 38.189C162.435 38.189 163.529 37.9896 164.805 37.5908V41.4702C163.506 42.0513 161.911 42.3418 160.02 42.3418C157.935 42.3418 156.414 41.8177 155.457 40.7695C154.511 39.71 154.039 38.1263 154.039 36.0186V26.8071H151.543V24.6025L154.415 22.8594L155.918 18.8262H159.251V22.8936H164.6V26.8071H159.251V36.0186C159.251 36.7591 159.456 37.306 159.866 37.6592C160.288 38.0124 160.84 38.189 161.524 38.189ZM181.98 42H166.89V38.9238L175.743 26.8755H167.42V22.8936H181.673V26.2773L173.06 38.0181H181.98V42Z" fill="#1B2534"/>
</g>
<defs>
<clipPath id="clip0_1_6">
<rect width="184" height="60" fill="white"/>
</clipPath>
</defs>
</svg>
