<svg width="18" height="16" viewBox="0 0 18 16" fill="none" xmlns="http://www.w3.org/2000/svg">
<path d="M16.1367 4.125C16.8398 3.59766 17.4727 2.96484 17.9648 2.22656C17.332 2.50781 16.5938 2.71875 15.8555 2.78906C16.6289 2.33203 17.1914 1.62891 17.4727 0.75C16.7695 1.17187 15.9609 1.48828 15.1523 1.66406C14.4492 0.92578 13.5 0.503906 12.4453 0.503906C10.4062 0.503906 8.75391 2.15625 8.75391 4.19531C8.75391 4.47656 8.78906 4.75781 8.85938 5.03906C5.80078 4.86328 3.05859 3.38672 1.23047 1.17187C0.914062 1.69922 0.738281 2.33203 0.738281 3.03516C0.738281 4.30078 1.37109 5.42578 2.39062 6.09375C1.79297 6.05859 1.19531 5.91797 0.703125 5.63672V5.67187C0.703125 7.46484 1.96875 8.94141 3.65625 9.29297C3.375 9.36328 3.02344 9.43359 2.70703 9.43359C2.46094 9.43359 2.25 9.39844 2.00391 9.36328C2.46094 10.8399 3.83203 11.8946 5.44922 11.9297C4.18359 12.9141 2.60156 13.5118 0.878906 13.5118C0.5625 13.5118 0.28125 13.4766 0 13.4415C1.61719 14.4961 3.55078 15.0938 5.66016 15.0938C12.4453 15.0938 16.1367 9.50391 16.1367 4.61719C16.1367 4.44141 16.1367 4.30078 16.1367 4.125Z" fill="white"/>
</svg>
