<svg width="44" height="45" viewBox="0 0 44 45" fill="none" xmlns="http://www.w3.org/2000/svg">
<g clip-path="url(#clip0_1_86)">
<path d="M0.62085 10.6364C0.62085 5.11363 5.098 0.636475 10.6209 0.636475H33.872C39.3949 0.636475 43.872 5.11363 43.872 10.6365V33.8876C43.872 39.4105 39.3949 43.8876 33.872 43.8876H10.6208C5.098 43.8876 0.62085 39.4105 0.62085 33.8876V10.6364Z" fill="#470137"/>
<path d="M22.3398 30.0156H18.8828L15.5625 24.6152L12.2422 30.0156H9L13.7363 22.6523L9.30273 15.7383H12.6426L15.7188 20.875L18.7363 15.7383H21.998L17.5156 22.8183L22.3398 30.0156ZM27.3594 30.2109C26.0768 30.2109 25.0677 29.7129 24.332 28.7168C23.6029 27.7207 23.2383 26.3405 23.2383 24.5761C23.2383 22.7858 23.6094 21.3926 24.3516 20.3965C25.1003 19.3939 26.1289 18.8926 27.4375 18.8926C28.8112 18.8926 29.8594 19.4264 30.582 20.4941H30.6797C30.5299 19.6803 30.4551 18.9544 30.4551 18.3164V14.8203H33.4434V30.0156H31.1582L30.582 28.5996H30.4551C29.778 29.6738 28.7461 30.2109 27.3594 30.2109ZM28.4043 27.8379C29.166 27.8379 29.7227 27.6165 30.0742 27.1738C30.4323 26.7311 30.6276 25.9791 30.6602 24.9179V24.5957C30.6602 23.4238 30.4779 22.584 30.1133 22.0761C29.7552 21.5683 29.1693 21.3144 28.3555 21.3144C27.6914 21.3144 27.1738 21.5976 26.8027 22.164C26.4382 22.7239 26.2559 23.541 26.2559 24.6152C26.2559 25.6894 26.4414 26.4967 26.8125 27.0371C27.1836 27.5709 27.7142 27.8379 28.4043 27.8379Z" fill="#FF61F6"/>
</g>
<defs>
<clipPath id="clip0_1_86">
<rect width="44" height="44" fill="white" transform="translate(0 0.015625)"/>
</clipPath>
</defs>
</svg>
